<?xml version="1.0" encoding="UTF-8"?>
<svg width="585px" height="277px" viewBox="0 0 585 277" version="1.1" xmlns="http://www.w3.org/2000/svg" xmlns:xlink="http://www.w3.org/1999/xlink">
    <!-- Generator: Sketch 64 (93537) - https://sketch.com -->
    <title>Group</title>
    <desc>Created with Sketch.</desc>
    <g id="Page-1" stroke="none" stroke-width="1" fill="none" fill-rule="evenodd">
        <g id="Abeja-v1" transform="translate(-49.000000, -56.000000)">
            <g id="Group" transform="translate(49.000000, 56.000000)">
                <path d="M19.9519021,133.615922 C25.4088312,133.615922 30.0557499,131.699022 33.8926541,127.865223 C37.7295584,124.031425 39.6480105,119.303073 39.6480105,113.680168 C39.6480105,108.227659 37.7295584,103.584497 33.8926541,99.7506983 C30.0557499,95.9168994 25.4088312,94 19.9519021,94 C14.3244425,94 9.5922606,95.9168994 5.75535636,99.7506983 C1.91845212,103.584497 0,108.227659 0,113.680168 C0,119.303073 1.91845212,124.031425 5.75535636,127.865223 C9.5922606,131.699022 14.3244425,133.615922 19.9519021,133.615922 Z M36.5784871,274.955307 L36.5784871,147.162011 L3.32531701,147.162011 L3.32531701,274.955307 L36.5784871,274.955307 Z M90.8067337,274.955307 L90.8067337,207.736034 C90.8067337,197.342181 92.6399226,189.717179 96.3062965,184.861034 C99.9726703,180.004888 105.813294,177.576816 113.828159,177.576816 C121.843169,177.576816 127.683792,180.004888 131.350022,184.861034 C135.0164,189.717179 136.849585,197.342181 136.849585,207.736034 L136.849585,207.736034 L136.849585,274.955307 L170.102755,274.955307 L170.102755,207.736034 C170.102755,186.948321 164.986882,171.314944 154.755138,160.835894 C144.523393,150.356844 130.881064,145.117318 113.828159,145.117318 C96.7752423,145.117318 83.1329174,150.356844 72.9011806,160.835894 C62.6694359,171.314944 57.5535636,186.948321 57.5535636,207.736034 L57.5535636,207.736034 L57.5535636,274.955307 L90.8067337,274.955307 Z M355.297333,277 C367.234327,277 378.276082,274.060754 388.422606,268.182263 C398.569084,262.303771 406.583953,254.295392 412.467206,244.157123 C418.350459,234.018853 421.292086,222.986035 421.292086,211.058659 C421.292086,199.131303 418.350459,188.098484 412.467206,177.960196 C406.583953,167.82193 398.569084,159.813547 388.422606,153.935056 C378.276129,148.056564 367.234366,145.117318 355.297333,145.117318 C343.360323,145.117318 332.318564,148.056564 322.172059,153.935056 C312.025586,159.813547 304.010721,167.82193 298.12746,177.960196 C292.244206,188.098461 289.30258,199.131288 289.30258,211.058659 C289.30258,222.986011 292.244206,234.018834 298.12746,244.157123 C304.010713,254.295396 312.025578,262.303775 322.172059,268.182263 C332.318541,274.060754 343.360296,277 355.297333,277 Z M355.553126,244.540503 C346.174084,244.540503 338.329745,241.34567 332.020114,234.956006 C325.710537,228.566341 322.55575,220.600557 322.55575,211.058659 C322.55575,201.516757 325.710537,193.550978 332.020114,187.161313 C338.329691,180.771648 346.174026,177.576816 355.553126,177.576816 C364.932223,177.576816 372.691299,180.771648 378.830345,187.161313 C384.969392,193.550978 388.038916,201.516757 388.038916,211.058659 C388.038916,220.600557 384.969392,228.566341 378.830345,234.956006 C372.691299,241.34567 364.932223,244.540503 355.553126,244.540503 Z M477.566681,274.955307 L477.566681,179.621508 L500.588107,179.621508 L500.588107,147.162011 L478.078268,147.162011 C478.078268,141.198844 480.209881,136.513095 484.473109,133.104749 C488.736333,129.696933 494.107999,127.907826 500.588107,127.73743 L500.588107,95.277933 C483.705728,95.277933 470.532357,99.8784916 461.067993,109.079609 C451.603629,118.280726 446.189334,130.974866 444.825098,147.162011 L425.12899,147.162011 L425.12899,179.621508 L444.313511,179.621508 L444.313511,274.955307 L477.566681,274.955307 Z M585,275.722067 L585,243.26257 C576.814604,243.26257 570.931351,241.047489 567.35024,236.617318 C563.76913,232.187152 561.978575,224.860335 561.978575,214.636872 L561.978575,179.621508 L585,179.621508 L585,147.162011 L561.978575,147.162011 L561.978575,96.3002793 L528.725404,96.3002793 L528.725404,147.162011 L509.796677,147.162011 L509.796677,179.621508 L528.725404,179.621508 L528.725404,214.636872 C528.725404,235.254187 533.798643,250.589387 543.945125,260.642458 C554.091606,270.695529 567.776561,275.722067 585,275.722067 Z" id="inzoft" fill="#121212" fill-rule="nonzero"></path>
                <polygon id="Path" fill="#FE6B4F" fill-rule="nonzero" points="285.465676 274.955307 285.465676 242.49581 225.098382 242.49581 283.163533 179.621508 283.163533 147.162011 185.450372 147.162011 185.450372 179.621508 240.701793 179.621508 182.892436 242.49581 182.892436 274.955307"></polygon>
                <g id="abeja" transform="translate(381.000000, 0.000000)">
                    <path d="M36.9542537,48.1906172 L45.2478502,52.9789182 L45.2478502,62.5555771 L36.9542802,67.3438577 L28.6606593,62.5555771 L28.6606593,52.9789487 L36.9542537,48.1906172 M36.9542537,44.8720703 C36.4471841,44.8720703 35.9490388,45.0054763 35.5099494,45.2590903 L26.8440133,50.2623492 C25.9502709,50.7783632 25.3997069,51.7319823 25.3997069,52.7639929 L25.3997069,62.7705126 C25.3997069,63.802521 25.9502756,64.7561366 26.8440133,65.2721543 L35.5099494,70.2754152 C36.4036903,70.791442 37.5048436,70.791442 38.3985846,70.2754152 L47.0644962,65.2721543 C47.9582416,64.7561443 48.5088026,63.8025238 48.5088026,62.7705126 L48.5088026,52.7639929 C48.5088026,51.7319795 47.9582462,50.7783555 47.0644962,50.2623492 L38.3985846,45.2590903 C37.9594857,45.0054757 37.4613318,44.8720703 36.9542537,44.8720703 L36.9542537,44.8720703 Z" id="Shape" fill="#FE6B4F" fill-rule="nonzero"></path>
                    <path d="M62.9517869,48.1906437 L71.2454079,52.9789446 L71.2454079,62.5555466 L62.9517869,67.3438475 L54.6581925,62.5555466 L54.6581925,52.9789446 L62.9517869,48.1906437 M62.9517869,44.8720702 C62.4447162,44.8720702 61.9465696,45.0054735 61.5074805,45.2590903 L52.8415444,50.2623492 C51.9478072,50.778368 51.3972401,51.7319843 51.3972401,52.7639929 L51.3972401,62.7705126 C51.3972401,63.8025296 51.947814,64.7561527 52.8415709,65.2721543 L61.5074724,70.2754152 C62.4012054,70.7914418 63.5023521,70.7914418 64.3960851,70.2754152 L73.0620192,65.2721543 C73.9557706,64.7561471 74.5063501,63.8025276 74.5063501,62.7705126 L74.5063501,52.7639929 C74.5063501,51.7319741 73.9557796,50.7783483 73.0620192,50.2623492 L64.3960851,45.2590903 C63.9569961,45.0054735 63.4588495,44.8720702 62.9517788,44.8720702 L62.9517869,44.8720702 Z" id="Shape" fill="#111011" fill-rule="nonzero"></path>
                    <path d="M36.9542537,93.2200305 L45.2478502,98.00836 L45.2478502,107.584992 L36.9542537,112.373293 L28.6606593,107.584964 L28.6606593,98.008362 L36.9542537,93.2200305 M36.9542537,89.9014815 C36.4471841,89.9014815 35.9490388,90.0348875 35.5099494,90.2885015 L26.8440133,95.2917604 C25.9502756,95.807779 25.3997069,96.7613952 25.3997069,97.7934041 L25.3997069,107.799952 C25.3997069,108.831956 25.9502724,109.785567 26.8440133,110.30157 L35.5099494,115.304855 C36.4036991,115.820849 37.5048348,115.820849 38.3985846,115.304855 L47.0644962,110.30157 C47.9582448,109.785575 48.5088026,108.831959 48.5088026,107.799952 L48.5088026,97.7934082 C48.5088026,96.7613965 47.9582416,95.8077754 47.0644962,95.2917645 L38.3985846,90.2885056 C37.9594857,90.034891 37.4613318,89.9014815 36.9542537,89.9014815 L36.9542537,89.9014815 Z" id="Shape" fill="#FE6B4F" fill-rule="nonzero"></path>
                    <path d="M23.9551783,70.7053249 L32.2487728,75.4936258 L32.2487728,85.0702277 L23.9551518,89.8585572 L15.6615574,85.0702399 L15.6615574,75.493638 L23.9551783,70.7053249 M23.9551783,67.3867555 C23.4481003,67.3867555 22.9499465,67.5201714 22.5108475,67.7737857 L13.8449358,72.7770446 C12.9511876,73.2930509 12.400605,74.2466663 12.400605,75.2786781 L12.400605,85.2851958 C12.400605,86.3172145 12.9511743,87.2708405 13.8449358,87.7868375 L22.5108475,92.7901228 C23.4045979,93.3061143 24.5057322,93.3061143 25.3994827,92.7901228 L34.0653943,87.7868375 C34.959159,87.2708426 35.5097333,86.3172162 35.5097333,85.2851958 L35.5097333,75.2786781 C35.5097333,74.2466626 34.9591539,73.2930425 34.0654025,72.7770344 L25.3994908,67.7737755 C24.9604014,67.5201615 24.4622562,67.3867555 23.9551865,67.3867555 L23.9551783,67.3867555 Z" id="Shape" fill="#111011" fill-rule="nonzero"></path>
                    <path d="M49.9531334,70.7053249 L58.2467279,75.4936258 L58.2467279,85.0702277 L49.9531069,89.8585572 L41.6595125,85.0702277 L41.6595125,75.4936258 L49.9531334,70.7053249 M49.9531334,67.3867535 C49.4460553,67.3867535 48.9479015,67.5201589 48.5088026,67.7737735 L39.8428909,72.7770324 C38.9491395,73.2930405 38.3985601,74.2466606 38.3985601,75.2786761 L38.3985601,85.2852203 C38.3985601,86.3172302 38.9491369,87.2708449 39.8428909,87.7868375 L48.5088026,92.7901228 C49.402553,93.3061143 50.5036873,93.3061143 51.3974378,92.7901228 L60.0633494,87.7868375 C60.9571036,87.2708336 61.5076762,86.3172115 61.5076762,85.2851958 L61.5076762,75.2786781 C61.5076762,74.2466609 60.9571014,73.2930379 60.0633454,72.7770344 L51.3974337,67.7737755 C50.9583429,67.5201646 50.4601986,67.3867535 49.9531294,67.3867535 L49.9531334,67.3867535 Z" id="Shape" fill="#FE6B4F" fill-rule="nonzero"></path>
                    <line x1="56.2011365" y1="35.1259559" x2="56.2653671" y2="35.1259559" id="Path" stroke="#211915" stroke-width="0.5"></line>
                    <path d="M1.23332684,65.4355117 C0.955375604,65.0117786 0.794691816,64.5219494 0.767640419,64.0159111 L0.69315619,62.526897 L0.565451181,59.5501632 C0.481161676,57.5656576 0.421724705,55.5811765 0.348654914,53.5966709 L0.181594286,47.6432032 C0.124272857,45.6587221 0.0976247619,43.6742165 0.054162381,41.6897354 L0.0245325524,40.2013695 L0.00970337143,39.4571855 L0.00231527619,39.0850945 C-0.00274893396,38.9354967 -0.000149693794,38.7857366 0.0105247238,38.6364242 C0.0599701815,37.9902223 0.278250205,37.3683361 0.643524495,36.8329891 C0.917139059,36.4301963 1.26626842,36.0842861 1.67157846,35.8144143 C1.73551758,35.7710253 1.81545371,35.7229833 1.87043745,35.6900681 L2.0304585,35.5951051 L7.15050225,32.5563723 C10.5673227,30.5364841 13.9951306,28.5356581 17.4339258,26.5538945 L22.5959156,23.5877587 L23.2426704,23.2196216 C23.5035621,23.0600719 23.7788647,22.9253824 24.0649502,22.8173281 C25.0169158,22.4736131 26.0655366,22.5156927 26.9869,22.9345818 C27.0624332,22.9693394 27.1369045,23.0061943 27.210314,23.0451464 L27.4035499,23.1548122 L27.7246396,23.3428245 L29.0065098,24.0993226 L34.1263293,27.1384773 L36.6852679,28.6597584 L39.2333598,30.1997758 C40.9303126,31.2295458 42.6348531,32.2461803 44.3255877,33.2867482 L46.8621113,34.8468164 L48.1303711,35.6268504 L48.7645142,36.0168807 C49.0145526,36.1680375 49.2434234,36.351711 49.4451321,36.5630902 C49.8462211,36.98337 50.1316583,37.5003396 50.2736565,38.0636725 C50.3433206,38.3409532 50.3768695,38.6260724 50.3737048,38.9119502 L50.3480939,39.664095 C50.3116955,40.6563477 50.2816173,41.6486005 50.2356909,42.6408533 L50.1073133,45.6175872 C50.0556394,46.6098155 50.0124502,47.6020683 49.9531885,48.5943211 C49.8939268,47.6020683 49.8507354,46.6098155 49.7990616,45.6175872 L49.670686,42.6408533 C49.6247596,41.6486005 49.5946814,40.6563477 49.558283,39.664095 L49.5310887,38.9279227 C49.5184155,38.7171117 49.4785462,38.508823 49.4124716,38.3082338 C49.2820011,37.9117793 49.051042,37.5558902 48.7421054,37.2752537 C48.5902378,37.1377751 48.4221156,37.0193996 48.2414881,36.9227672 L47.5866705,36.568589 L46.2769905,35.8602653 L43.6576774,34.4436057 C41.9111398,33.4996925 40.178445,32.5318214 38.438144,31.5771104 L35.8304011,30.1403938 L33.2334724,28.6849411 L28.0415797,25.7706035 L26.7455019,25.0387358 L26.4221235,24.8546815 L26.2910617,24.7819847 C26.2545798,24.763275 26.2176169,24.7457596 26.1802994,24.7290166 C25.7268619,24.5302525 25.213716,24.5164865 24.7502739,24.6906535 C24.5735808,24.7622478 24.4042348,24.850782 24.2446062,24.9550169 L23.6024024,25.3310455 L18.4526697,28.3183938 C15.0128609,30.2984712 11.5661837,32.2666333 8.1126381,34.22288 L2.9209981,37.1375845 L2.75876571,37.2286873 C2.70669238,37.2583926 2.67969985,37.2732951 2.64021583,37.2984228 C2.42044334,37.4365347 2.22957288,37.6159983 2.0781968,37.826854 C1.87530104,38.1116712 1.74743519,38.4430173 1.70640543,38.7902983 C1.68630166,38.9330037 1.69043288,39.2138899 1.68294288,39.4571814 L1.66811573,40.2013654 L1.63848387,41.6897313 C1.59499499,43.6742124 1.56837339,45.658718 1.511054,47.6431991 L1.34399133,53.5966669 C1.27092154,55.5811724 1.21148457,57.5656535 1.12719507,59.5501591 L0.999481905,62.526897 L0.925790495,64.0145924 C0.906023963,64.5066588 1.0118601,64.9956566 1.23332684,65.4355117 Z" id="Path" fill="#111011" fill-rule="nonzero"></path>
                    <path d="M11.008321,14.8220334 C11.2363288,14.3694636 11.5801943,13.9853979 12.0049047,13.7089419 L13.2571675,12.89992 L15.7712497,11.3009691 C17.4477257,10.2357219 19.1366443,9.19201333 20.818721,8.13648381 L25.8910448,5.01506758 C27.5810068,3.97318107 29.2863198,2.9578652 30.9831972,1.92796472 L32.2573552,1.15810686 L32.8944353,0.773175886 L33.212961,0.580736895 C33.3399854,0.501553808 33.4710525,0.429048626 33.6056286,0.363516705 C34.1899713,0.0832405154 34.8376713,-0.0386685754 35.4839249,0.00998666667 C35.9695682,0.0455627607 36.4437063,0.174966275 36.8800895,0.391033029 C36.9496272,0.424720705 37.0312061,0.469907314 37.0871844,0.501073867 L37.2494453,0.592156343 L42.4410853,3.50689137 C45.898756,5.45598978 49.3454312,7.42414982 52.7811108,9.41137149 L57.9308333,12.3987279 L58.5730371,12.7747565 C58.8416597,12.9209149 59.0959555,13.091989 59.332572,13.2857233 C60.1061978,13.9383048 60.5940648,14.8674599 60.6920142,15.8748155 C60.6996774,15.9576131 60.7051497,16.0405595 60.7079623,16.1236058 L60.7095927,16.3457765 L60.707304,16.7178675 L60.6930984,18.2062355 L60.6210232,24.1597012 L60.5830087,27.1364351 L60.523374,30.113169 C60.4800339,32.0976745 60.4518715,34.0821556 60.3960664,36.0666612 L60.3132953,39.0433951 L60.2718955,40.531761 L60.2511966,41.275945 C60.2452997,41.5680617 60.2006666,41.8581044 60.1184656,42.1384791 C59.9550471,42.695975 59.650059,43.2016577 59.2331945,43.6062949 C59.0278841,43.8052614 58.7977305,43.9768714 58.5484475,44.1168643 L57.8843729,44.470967 C57.0068628,44.9355855 56.1325118,45.4056497 55.2502245,45.8620078 L52.6081153,47.2391895 C51.7229705,47.6905705 50.8420731,48.1492928 49.9531192,48.5940806 C50.7828114,48.0466482 51.6205154,47.5131095 52.4539904,46.9722378 L54.9677486,45.37271 C55.804083,44.8368153 56.6483619,44.3146268 57.4894675,43.7869925 L58.1134365,43.395346 C58.2896589,43.2789672 58.4500959,43.140294 58.5907584,42.9827743 C58.8688724,42.6715629 59.061604,42.2935997 59.1501646,41.8857309 C59.1932982,41.6854731 59.2117545,41.480688 59.2051218,41.275945 L59.1844229,40.531761 L59.1430496,39.0433951 L59.0602519,36.0666612 C59.0044469,34.0821556 58.9762824,32.0976745 58.9329444,30.113169 L58.8733097,27.1364351 L58.8353196,24.1597012 L58.7632444,18.2062355 L58.7490144,16.7178675 L58.7467501,16.3457765 L58.7441617,16.1959052 C58.742146,16.1549782 58.7388138,16.114202 58.7346581,16.0735237 C58.6800556,15.5814551 58.4354099,15.1301761 58.0528724,14.8158865 C57.9025171,14.6986689 57.7411698,14.5962787 57.5710871,14.5101477 L56.9243322,14.1420106 L51.7623648,11.1758769 C48.3276811,9.18696769 44.8998733,7.18614174 41.4789413,5.17339905 L36.3588731,2.13464185 L36.1988826,2.03967884 C36.1471334,2.00947427 36.1207115,1.99355267 36.0792138,1.9719081 C35.849717,1.85064035 35.5988642,1.77506986 35.3405714,1.74938886 C34.9924618,1.71609445 34.6415742,1.77103437 34.320301,1.9091368 C34.1866508,1.96309945 33.9454728,2.10710107 33.7310387,2.22224122 L33.0791336,2.58152072 L31.775364,3.30002878 C30.0349978,4.25461349 28.3030612,5.22380318 26.5557818,6.16640592 L21.3164014,8.9984595 C19.5612305,9.92742331 17.8129035,10.8682081 16.0521359,11.7874563 L13.4103569,13.1652352 L12.0851221,13.8452558 C11.6490935,14.074165 11.2785214,14.4103148 11.008321,14.8220334 Z" id="Path" fill="#111011" fill-rule="nonzero"></path>
                    <path d="M94.7272875,44.8551011 L108.798156,52.9789732 L108.798156,69.2265543 L94.7272875,77.3504243 L80.6564206,69.2265767 L80.6564206,52.9789487 L94.7272875,44.8551011 M94.7272875,41.5365542 C94.2202097,41.5365542 93.7220559,41.6699587 93.2829567,41.9235722 L78.839791,50.2623471 C77.9460343,50.77835 77.3954601,51.7319734 77.3954601,52.7639908 L77.3954601,69.4415407 C77.3954601,70.4735559 77.9460389,71.4271759 78.839791,71.9431824 L93.2829567,80.2819573 C94.1767159,80.7979515 95.2778591,80.7979515 96.1716183,80.2819573 L110.614784,71.9431579 C111.508538,71.4271653 112.059115,70.4735507 112.059115,69.4415407 L112.059115,52.7639684 C112.059115,51.7319577 111.508539,50.7783421 110.614784,50.2623492 L96.1716183,41.9235742 C95.7325193,41.6699602 95.2343654,41.5365542 94.7272875,41.5365542 L94.7272875,41.5365542 Z" id="Shape" fill="#FE6B4F" fill-rule="nonzero"></path>
                    <path d="M103.991568,42.645119 C103.546059,42.7035847 103.093038,42.6557829 102.669543,42.5056216 C102.448915,42.4255102 102.258987,42.3266157 102.059706,42.2398132 L101.466042,41.9702975 C100.67414,41.6115663 99.8917414,41.2363652 99.1095428,40.8607891 C98.3292839,40.4819316 97.5519285,40.0980061 96.7774768,39.7090125 L96.1969478,39.4167334 C95.9992526,39.3125867 95.830429,39.2376786 95.577163,39.0845972 C95.1101783,38.7931848 94.7156758,38.3992691 94.4235685,37.9327188 C94.1300158,37.4572851 93.9463493,36.9222925 93.8859801,36.3668054 C93.8582152,36.0592568 93.8620468,35.8778052 93.8522456,35.654591 L93.8312532,35.0057185 C93.7998665,34.1405471 93.7834864,33.2753532 93.7628364,32.4101838 C93.7419867,31.5450124 93.7362657,30.679841 93.7222334,29.8146471 L93.7174072,29.1657747 L93.7158644,28.8413262 L93.7155159,28.76021 L93.7177578,28.6546 C93.7209413,28.5817034 93.7196471,28.5085582 93.7280074,28.4359124 C93.815552,27.2485726 94.4475421,26.168547 95.4397873,25.5106037 L95.6257349,25.3949907 C95.6921626,25.3541391 95.7250513,25.3374696 95.7763502,25.3075157 L96.0580822,25.1465979 L96.6219416,24.8254328 L98.8896711,23.5622478 C99.6496768,23.1482598 100.40635,22.7284631 101.171482,22.3233937 L101.743999,22.017231 L102.030258,21.8641497 L102.198142,21.7772229 C102.260838,21.7455754 102.323434,21.7140786 102.388865,21.6884027 C102.90277,21.4677649 103.459951,21.3663112 104.018644,21.3916458 C104.568985,21.41677 105.10621,21.5679205 105.588913,21.8334478 L105.764511,21.9365225 L105.904324,22.026162 L106.177099,22.2026304 L106.720608,22.559022 C107.445335,23.0340626 108.166431,23.5154233 108.883895,24.0031042 C109.600063,24.4930235 110.316034,24.983267 111.02255,25.4899537 L111.552575,25.8696509 L111.817586,26.0595035 C111.911354,26.1242807 112.001471,26.1941893 112.087526,26.2689097 C112.425547,26.5651144 112.688644,26.9371334 112.855295,27.3545337 C112.604784,27.0105105 112.281775,26.7257035 111.909093,26.5202394 C111.733745,26.4220399 111.532422,26.3412335 111.333887,26.2484105 L110.740023,25.9792433 C109.948019,25.6207424 109.165476,25.2458062 108.383078,24.8705562 C107.60272,24.4917966 106.825298,24.1079866 106.050812,23.7191262 L105.470432,23.4266228 L105.181238,23.2786428 L105.039625,23.2069161 L104.928957,23.1571866 C104.633975,23.0363099 104.316336,22.9806688 103.997831,22.9940799 C103.687841,23.0073826 103.384936,23.0910157 103.112036,23.2386513 C103.077553,23.2547523 103.045857,23.2763928 103.013068,23.2955142 L102.89708,23.3655982 L102.62137,23.5369653 L102.07,23.8796751 C101.336614,24.3397893 100.59477,24.7851743 99.8562092,25.2363821 L97.6283856,26.5687074 L97.0683578,26.8964147 L96.7881197,27.0599454 C96.7462715,27.0849487 96.6838263,27.1195311 96.6589473,27.136647 L96.5697297,27.1929229 C96.3383503,27.3530164 96.1447945,27.561789 96.0026358,27.8046002 C95.8592895,28.0468465 95.7719068,28.3180723 95.7468793,28.5984382 C95.7411074,28.6331959 95.7438446,28.6686486 95.7410585,28.7036773 L95.7386698,28.7602019 L95.7382622,28.8413181 L95.7367703,29.1657665 L95.7319441,29.814639 C95.7179118,30.6798349 95.71214,31.5450042 95.6913412,32.4101757 C95.6706912,33.2753471 95.6543212,34.140541 95.6228734,35.0057103 L95.6019259,35.6545828 L95.5856537,36.2397199 C95.5921147,36.5502942 95.667454,36.8555594 95.8062327,37.1334777 C95.9513555,37.4177737 96.1557239,37.6676648 96.4055693,37.8663156 C96.5132459,37.9518748 96.7255645,38.0827613 96.900912,38.1974307 L97.4442682,38.5540484 C98.1691507,39.0288648 98.8903294,39.5101094 99.6078041,39.9977821 C100.324123,40.4874019 101.040243,40.9773702 101.746907,41.4838103 L102.277132,41.8631671 C102.455058,41.9877355 102.630413,42.1228041 102.800637,42.2287402 C103.162329,42.4530783 103.568887,42.5952212 103.991568,42.645119 L103.991568,42.645119 Z" id="Path" fill="#111011" fill-rule="nonzero"></path>
                    <path d="M102.762392,42.3945108 C102.226047,42.1890341 101.700353,41.9652227 101.1764,41.7383012 C100.651101,41.5137662 100.133368,41.2760958 99.6158301,41.0381034 L98.8431882,40.6747436 L98.4549739,40.4872551 C98.3007906,40.4076104 98.1538749,40.314622 98.0159091,40.2093547 C97.4488651,39.7680949 97.0663988,39.1315411 96.9430231,38.4237082 C96.9309311,38.3343927 96.9149096,38.2449264 96.910381,38.1544921 L96.8960002,37.9160003 L96.8745554,37.4906172 L96.8396754,36.6398021 C96.8145477,36.0726002 96.8014102,35.5054166 96.7848914,34.9382229 L96.7669276,34.0874323 L96.7596638,33.6620247 C96.7583207,33.5144666 96.7514544,33.4004454 96.7585184,33.1885997 C96.8015507,32.4182761 97.1250636,31.6903467 97.6680001,31.1421951 C97.8041058,31.0078797 97.9519261,30.8859781 98.1097022,30.7779406 C98.1848366,30.7257654 98.2781834,30.6706858 98.3448597,30.6310551 L98.5296619,30.5257406 L99.2692174,30.1050614 L100.758829,29.2819359 C101.2586,29.0132171 101.755734,28.7398454 102.259635,28.478266 L102.461256,28.3735997 C102.543131,28.3309695 102.627188,28.2926685 102.713081,28.2588549 C102.883398,28.189186 103.060163,28.1364621 103.240817,28.1014467 C103.59903,28.0317238 103.966911,28.027475 104.326639,28.0889063 C104.681025,28.1506937 105.020676,28.2784087 105.327973,28.465426 C105.411568,28.5142649 105.459783,28.5492937 105.521592,28.5895236 L105.699229,28.7072522 L106.05286,28.9455177 C106.524476,29.2630991 106.993148,29.5857147 107.458877,29.9133643 C107.92362,30.2428387 108.388212,30.5725618 108.84519,30.9154203 L109.188075,31.1723467 C109.310575,31.2602475 109.425081,31.3587856 109.530261,31.4668148 C109.733415,31.6807716 109.892957,31.9322447 109.999978,32.2071916 C109.824859,31.9891207 109.613111,31.8032017 109.37422,31.6577619 C109.259094,31.5870994 109.138317,31.5260879 109.013124,31.4753523 L108.619189,31.3068712 C108.093742,31.082538 107.575909,30.8450653 107.058224,30.6073215 C106.542179,30.3667923 106.028443,30.1222208 105.517017,29.8736072 L104.766115,29.5068132 C104.573459,29.4233953 104.367904,29.3736943 104.158418,29.3598788 C103.954267,29.3477412 103.749606,29.3727001 103.554355,29.4335457 C103.458448,29.4619328 103.365384,29.4991621 103.276359,29.5447544 C103.231774,29.5666237 103.18851,29.5910889 103.146789,29.6180239 L102.978508,29.7232875 C102.499984,30.0289019 102.014693,30.3227483 101.532086,30.6212478 L100.07442,31.4997035 L99.3403388,31.9298129 L99.1567308,32.0372206 C99.1022954,32.0711059 99.0732851,32.0881974 99.0321849,32.1170833 C98.9568691,32.1708099 98.8859255,32.2304155 98.8200192,32.2953412 C98.5540134,32.5596826 98.3919559,32.91088 98.3634369,33.2848079 L98.3277111,34.9382229 C98.3112413,35.5054248 98.2981058,36.0726084 98.2729781,36.6398021 L98.2380961,37.4906172 L98.2166513,37.9160003 L98.2084989,38.1028182 C98.2042698,38.1544167 98.209842,38.2055382 98.209842,38.2574668 C98.2374948,38.6870362 98.4163849,39.0929322 98.7147882,39.4031739 C98.7920182,39.4828614 98.8759353,39.5557836 98.9656186,39.6211401 L99.3134787,39.8602514 L100.014471,40.3477088 C100.479361,40.676908 100.944047,41.0064314 101.401134,41.3491167 C101.859577,41.6893869 102.316306,42.0327692 102.762392,42.3945108 Z" id="Path" fill="#111011" fill-rule="nonzero"></path>
                    <path d="M64.6127897,88.7461261 C64.4445509,88.567131 64.3208893,88.3509878 64.251843,88.1152419 C64.2341814,88.0540315 64.2198932,87.9918977 64.209043,87.929121 L64.1758221,87.7580779 L64.1135481,87.4160142 C64.0315229,86.9599313 63.9629063,86.5038484 63.8977974,86.047739 C63.7707894,85.1355731 63.675378,84.2234053 63.5975309,83.3112129 L63.5438434,82.6270875 L63.531676,82.4560445 L63.5264523,82.3705342 L63.5240066,82.3246077 L63.5232097,82.2588037 C63.5207431,82.0820422 63.5377551,81.9055467 63.5739379,81.7325105 C63.6447393,81.3807576 63.7919801,81.0488628 64.0052417,80.7603105 C64.1125355,80.6149167 64.235166,80.4814929 64.3710145,80.3623439 C64.438237,80.3014904 64.5107117,80.247006 64.5837305,80.1930414 L64.7792797,80.0650632 C65.1638377,79.8189612 65.555957,79.5859417 65.9439206,79.3457603 L67.1219397,78.6495939 L68.3130026,77.976091 C68.7148497,77.7598919 69.1134135,77.5380453 69.5179245,77.3265236 L69.7266845,77.2211541 C69.8100059,77.1848556 69.8934985,77.149303 69.9799036,77.1215136 C70.1511667,77.0634078 70.3281911,77.0239208 70.5079129,77.0037362 C70.8647447,76.9627799 71.226218,77.0010404 71.5665689,77.1157906 C71.7346758,77.1710757 71.8961833,77.2447054 72.0481708,77.3353485 L72.1047952,77.3690097 L72.143358,77.3940783 L72.2147851,77.4413988 L72.357144,77.53691 L72.9225952,77.9257684 C73.6738187,78.448976 74.416038,78.9877587 75.1422582,79.5542554 C75.504497,79.8390222 75.8650707,80.1266728 76.218827,80.4260935 L76.4837794,80.651303 L76.6151896,80.7657726 C76.6640928,80.806669 76.7107644,80.8501621 76.755003,80.896064 C76.9245544,81.0740031 77.0497287,81.2894375 77.1203519,81.5248571 C76.9664368,81.3625447 76.7807596,81.2336504 76.5748781,81.1461974 C76.5254421,81.1258959 76.4779728,81.1079831 76.4270958,81.0915377 L76.262271,81.0349642 L75.9347634,80.918106 C75.498558,80.7614437 75.0691701,80.5930114 74.6414228,80.4216932 C73.7877218,80.0759997 72.9500177,79.702588 72.1212956,79.3136298 L71.5018064,79.0183627 L71.3479037,78.9428309 L71.271202,78.9046411 L71.2355353,78.8873173 L71.2167522,78.8806996 C71.1684276,78.8616888 71.1179659,78.8486392 71.0664835,78.8418392 C70.9677879,78.8285405 70.8674712,78.8339333 70.7707701,78.8577364 C70.7244225,78.8691514 70.6795189,78.885786 70.6369203,78.9073212 C70.6153491,78.9166496 70.59582,78.9302335 70.5753698,78.9411312 L70.5465348,78.961133 L70.484485,79.0006415 C70.0990343,79.2452129 69.707612,79.479439 69.3194731,79.7193493 L68.140651,80.4140972 L66.9487729,81.086206 C66.546777,81.3020831 66.1489102,81.525173 65.7435046,81.7351518 L65.6782468,81.769188 L65.646428,81.7842394 C65.6267237,81.7965535 65.6051036,81.8067542 65.5862207,81.8208354 C65.5461647,81.8470757 65.5092149,81.8777755 65.47608,81.9123459 C65.4065349,81.9841691 65.3513582,82.0686224 65.3135194,82.1611606 C65.2936794,82.2093378 65.27977,82.2597483 65.2720972,82.3112826 L65.2684388,82.330936 L65.2656283,82.3705178 L65.2604026,82.4560282 L65.2482372,82.6270712 L65.1945905,83.311219 C65.1167352,84.2234114 65.021332,85.1355792 64.8943261,86.0477451 C64.8292171,86.5038545 64.7606005,86.9599374 64.6785488,87.4160203 L64.6163013,87.758084 L64.5830804,87.9291271 C64.5719096,87.9814226 64.5638978,88.0315047 64.5566585,88.0845217 C64.5297824,88.3065719 64.548889,88.5317774 64.6127897,88.7461261 L64.6127897,88.7461261 Z" id="Path" fill="#111011" fill-rule="nonzero"></path>
                    <path d="M64.6130139,103.188389 C64.3738846,103.244583 64.1248752,103.243605 63.8861945,103.185536 C63.8243458,103.170219 63.7633832,103.151523 63.7035811,103.129533 L63.5388562,103.072784 L63.2114973,102.955679 C62.7754917,102.798666 62.3462016,102.630036 61.9186561,102.458384 C61.0651772,102.112291 60.2274997,101.738832 59.3986267,101.350145 L58.7792862,101.054583 L58.6251105,100.979597 L58.5484088,100.941383 L58.5074329,100.920509 L58.450036,100.88829 C58.2957332,100.802044 58.1513947,100.699071 58.019629,100.581233 C57.7504041,100.344032 57.5366002,100.05056 57.3933468,99.7215849 C57.3210686,99.5559731 57.2668269,99.3830625 57.2315588,99.2058408 C57.2124761,99.1171979 57.2015295,99.0272099 57.1913043,98.9369732 L57.1782422,98.7036317 C57.1573945,98.2475488 57.1516471,97.7914659 57.1376393,97.3353809 L57.1237578,95.9671057 L57.1359986,94.5988304 C57.1497068,94.1427475 57.1568463,93.6866646 57.175929,93.2305797 L57.18904,92.9970894 C57.1992896,92.9068017 57.2102627,92.8167179 57.2293943,92.7279976 C57.2646942,92.5506265 57.3189951,92.3775732 57.3913577,92.2118316 C57.5343273,91.8823334 57.7482086,91.5884223 58.0177622,91.3510401 C58.1496989,91.2331077 58.2942122,91.1300515 58.4486929,91.043732 L58.5061672,91.0115138 L58.5471676,90.9906417 L58.6238693,90.9524763 L58.7777454,90.8769445 L59.3972347,90.5816775 C60.2259568,90.1927192 61.0636853,89.8193076 61.9173863,89.473614 C62.3451071,89.3022958 62.7745215,89.1338635 63.2107004,88.9772013 L63.5382346,88.860343 L63.7030574,88.8037695 C63.7629264,88.7818733 63.8239265,88.7632034 63.885795,88.7478401 C64.124667,88.6899718 64.3738227,88.6892812 64.6130139,88.7458245 C64.3954899,88.7979674 64.1910286,88.8943251 64.0123546,89.0288996 C63.9700601,89.0615662 63.9308308,89.093711 63.891145,89.1295346 L63.7597327,89.2440042 L63.4947803,89.4692138 C63.1409996,89.7686344 62.7804279,90.056285 62.4182136,90.3410762 C61.6919669,90.9075485 60.9497497,91.4463353 60.1985241,91.9695368 L59.6330729,92.3584053 L59.490714,92.4539166 L59.4193113,92.5012371 L59.386447,92.5234788 L59.3713203,92.5364656 C59.3306999,92.5688039 59.2941734,92.6059737 59.2625492,92.6471525 C59.2016879,92.7259798 59.1561949,92.8155505 59.1284425,92.9111938 C59.1151573,92.9570425 59.1071112,93.0042492 59.1044582,93.05191 C59.1017476,93.0752483 59.1037612,93.0989574 59.1029663,93.1221204 L59.1058767,93.1571002 L59.1090623,93.2305919 C59.1281185,93.6866768 59.1352844,94.1427598 59.1489682,94.5988427 L59.1612334,95.9671179 L59.1473499,97.3353931 C59.1333177,97.7914781 59.1275804,98.247561 59.106747,98.7036439 L59.1035635,98.7771866 L59.1007102,98.8122662 C59.1015254,98.8355005 59.0995403,98.8592871 59.1022775,98.8826987 C59.1049775,98.9305101 59.1130983,98.9778602 59.1264839,99.0238389 C59.1539005,99.1199819 59.1994515,99.2099944 59.2606823,99.2890256 C59.2924759,99.3303035 59.3291776,99.3675562 59.3699772,99.3999612 L59.3851529,99.4129479 L59.4180436,99.4351632 L59.4894707,99.4824816 L59.631526,99.5785167 L60.1971524,99.9670775 C60.9482027,100.490583 61.6904444,101.02929 62.4169153,101.595389 C62.7793539,101.879807 63.1400315,102.167279 63.4939814,102.466381 L63.7590927,102.691338 L63.8906029,102.805608 C63.9303355,102.841434 63.9696932,102.873403 64.0119633,102.906194 C64.1908344,103.040494 64.3954271,103.13655 64.6130139,103.188389 L64.6130139,103.188389 Z" id="Path" fill="#111011" fill-rule="nonzero"></path>
                    <path d="M44.1758834,119.070032 L46.69223,120.522848 L46.69223,123.428427 L44.1759181,124.881216 L41.6595981,123.428452 L41.6595981,120.522823 L44.1758936,119.070032 M44.1759181,115.751483 C43.6688423,115.751483 43.1706884,115.884873 42.7315873,116.138479 L39.8429521,117.806252 C38.9492106,118.322254 38.3986457,119.275865 38.3986457,120.307869 L38.3986457,123.643383 C38.3986457,124.675392 38.9492138,125.629009 39.8429521,126.145027 L42.7315873,127.812772 C43.6253298,128.328796 44.726482,128.328796 45.6202245,127.812772 L48.5088617,126.145027 C49.4026131,125.629019 49.9531925,124.675399 49.9531925,123.643383 L49.9531925,120.307867 C49.9531925,119.275857 49.4026157,118.322243 48.5088617,117.80625 L45.6202245,116.138477 C45.1811323,115.884871 44.6829862,115.751483 44.1759181,115.751483 L44.1759181,115.751483 Z" id="Shape" fill="#111011" fill-rule="nonzero"></path>
                    <path d="M100.117493,55.0852121 L102.633764,56.5380011 L102.633764,59.4436299 L100.117444,60.8963964 L97.60112,59.4436054 L97.60112,56.5380011 L100.117491,55.0852121 M100.117442,51.7666591 C99.6103824,51.7666591 99.1122459,51.9000584 98.6731601,52.1536587 L95.7845005,53.8214076 C94.8907497,54.3374154 94.3401697,55.2910345 94.3401697,56.3230493 L94.3401697,59.6585654 C94.3401697,60.6905804 94.8907491,61.6441999 95.7845005,62.160207 L98.6731622,63.8279518 C99.5668952,64.3439784 100.668042,64.3439784 101.561775,63.8279518 L104.450437,62.160207 C105.344175,61.644194 105.894716,60.6905724 105.894716,59.6585654 L105.894716,56.3230452 C105.894716,55.2910432 105.344178,54.3374265 104.450437,53.821428 L101.561775,52.1536547 C101.122674,51.900048 100.62452,51.7666591 100.117444,51.7666591 L100.117442,51.7666591 Z" id="Shape" fill="#111011" fill-rule="nonzero"></path>
                </g>
            </g>
        </g>
    </g>
</svg>