<svg xmlns="http://www.w3.org/2000/svg" viewBox="0 0 1519.47021 1431.80005"><g id="a51fbabc-4d43-4c21-b997-a9af06ad6543" data-name="Capa 2"><g id="e27c1ac8-3234-4176-8ca5-63f342e01c30" data-name="Capa 1"><path d="M645.91992,300.66A512.09537,512.09537,0,0,0,506.8501,319.78a72.03575,72.03575,0,0,0,69.21972,52.12H906.58936A509.5556,509.5556,0,0,0,645.91992,300.66Zm0,0A512.09537,512.09537,0,0,0,506.8501,319.78a72.03575,72.03575,0,0,0,69.21972,52.12H906.58936A509.5556,509.5556,0,0,0,645.91992,300.66Z" fill="none"/><path d="M0,0V1431.80005H1519.47021V0ZM1144.06982,507.9a71.96618,71.96618,0,0,1-72,72h-624a72,72,0,0,1,0-144h624A71.99965,71.99965,0,0,1,1144.06982,507.9ZM525.15967,248.99a71.88648,71.88648,0,0,1,50.91015-21.09h368a72,72,0,0,1,0,144h-368a71.99774,71.99774,0,0,1-50.91015-122.91Zm479.5498,922.25q-.7793,1.17-1.58984,2.34009a2.11389,2.11389,0,0,1-.12988.17993,72.1198,72.1198,0,0,1-58.58985,30.14014h-368a72,72,0,0,1,0-144h368A72.01346,72.01346,0,0,1,1004.73975,1171.2C1004.73,1171.21,1004.72021,1171.23,1004.70947,1171.24Zm136.66992-229.01c-.11914.46-.23925.92017-.36914,1.38013a71.99078,71.99078,0,0,1-69.2705,52.29h-624a72,72,0,0,1,0-144h624A72.05256,72.05256,0,0,1,1141.49951,941.78ZM1250.98,766.81006a71.77564,71.77564,0,0,1-50.91016,21.09h-880a72,72,0,0,1,0-144h880a71.99775,71.99775,0,0,1,50.91016,122.91Z" fill="none"/><path d="M1016.06982,299.9a72.00542,72.00542,0,0,1-72,72H906.58936A513.45785,513.45785,0,0,0,506.8501,319.78a71.9896,71.9896,0,0,1,69.21972-91.88h368A71.99965,71.99965,0,0,1,1016.06982,299.9Z" fill="#424242"/><path d="M906.58936,371.9H576.06982a72.03575,72.03575,0,0,1-69.21972-52.12A513.45785,513.45785,0,0,1,906.58936,371.9Z" fill="#444242"/><path d="M1144.06982,507.9a72.05877,72.05877,0,0,1-44.75976,66.66,513.6456,513.6456,0,0,0-106.71-138.66h79.46972A71.99965,71.99965,0,0,1,1144.06982,507.9Z" fill="#424242" stroke="#fe6b4f" stroke-miterlimit="10"/><path d="M1272.06982,715.9a72.00542,72.00542,0,0,1-72,72h-42.74023a510.0354,510.0354,0,0,0-27.87988-144h70.62011A71.99965,71.99965,0,0,1,1272.06982,715.9Z" fill="#424242" stroke="#fe6b4f" stroke-miterlimit="10"/><path d="M1099.31006,574.56006A71.22677,71.22677,0,0,1,1083.44971,579a72.30509,72.30509,0,0,1-11.37989.9h-624a72,72,0,0,1,0-144H992.6001A513.6456,513.6456,0,0,1,1099.31006,574.56006Z" fill="#fe6b4f"/><path d="M1157.32959,787.9H320.06982a72,72,0,0,1,0-144h809.37989A510.0354,510.0354,0,0,1,1157.32959,787.9Z" fill="#fe6b4f"/><path d="M1143.73975,923.90015a72.21166,72.21166,0,0,1-2.24024,17.87988l-.12012.44995c-.11914.46-.23925.92017-.36914,1.38013a71.99078,71.99078,0,0,1-69.2705,52.29h-624a72,72,0,0,1,0-144h624a71.93795,71.93795,0,0,1,72,72Z" fill="#fe6b4f"/><path d="M1016.3999,1131.90015a71.70344,71.70344,0,0,1-11.66015,39.2998c-.00977.01-.01954.03-.03028.04q-.7793,1.17-1.58984,2.34009a2.11389,2.11389,0,0,1-.12988.17993,72.1198,72.1198,0,0,1-58.58985,30.14014h-368a72,72,0,0,1,0-144h368A71.9995,71.9995,0,0,1,1016.3999,1131.90015Z" fill="#fe6b4f"/><path d="M645.91992,300.66A512.09537,512.09537,0,0,0,506.8501,319.78a72.03575,72.03575,0,0,0,69.21972,52.12H906.58936A509.5556,509.5556,0,0,0,645.91992,300.66Z" fill="#fe6b4f"/></g></g></svg>